<mxfile host="Electron" agent="Mozilla/5.0 (X11; Linux x86_64) AppleWebKit/537.36 (KHTML, like Gecko) draw.io/24.7.17 Chrome/128.0.6613.36 Electron/32.0.1 Safari/537.36" version="24.7.17">
  <diagram name="Page-1" id="gNuTheKCUGw8bozIIzxo">
    <mxGraphModel dx="2449" dy="1601" grid="0" gridSize="10" guides="1" tooltips="1" connect="1" arrows="1" fold="1" page="0" pageScale="1" pageWidth="850" pageHeight="1100" math="0" shadow="0">
      <root>
        <mxCell id="0" />
        <mxCell id="1" parent="0" />
        <mxCell id="5xexktItHSbGTKAqfjjY-1" value="Classe SistemaDeAutenticação" style="rounded=0;whiteSpace=wrap;html=1;strokeWidth=2;fontSize=16;" vertex="1" parent="1">
          <mxGeometry x="-208" y="-55" width="201" height="60" as="geometry" />
        </mxCell>
        <mxCell id="5xexktItHSbGTKAqfjjY-2" value="" style="ellipse;html=1;shape=startState;fillColor=#000000;strokeColor=#ff0000;" vertex="1" parent="1">
          <mxGeometry x="-122.5" y="51" width="30" height="30" as="geometry" />
        </mxCell>
        <mxCell id="5xexktItHSbGTKAqfjjY-3" value="" style="edgeStyle=orthogonalEdgeStyle;html=1;verticalAlign=bottom;endArrow=open;endSize=8;strokeColor=#ff0000;rounded=0;fontSize=12;curved=1;" edge="1" source="5xexktItHSbGTKAqfjjY-2" parent="1">
          <mxGeometry relative="1" as="geometry">
            <mxPoint x="-107.5" y="141" as="targetPoint" />
          </mxGeometry>
        </mxCell>
        <mxCell id="5xexktItHSbGTKAqfjjY-4" value="Registrando Usuário" style="swimlane;fontStyle=0;childLayout=stackLayout;horizontal=1;startSize=26;fillColor=none;horizontalStack=0;resizeParent=1;resizeParentMax=0;resizeLast=0;collapsible=1;marginBottom=0;whiteSpace=wrap;html=1;rounded=1;" vertex="1" parent="1">
          <mxGeometry x="69" y="262.5" width="159" height="63" as="geometry" />
        </mxCell>
        <mxCell id="5xexktItHSbGTKAqfjjY-5" value="registrarUsuario()" style="text;strokeColor=none;fillColor=none;align=left;verticalAlign=top;spacingLeft=4;spacingRight=4;overflow=hidden;rotatable=0;points=[[0,0.5],[1,0.5]];portConstraint=eastwest;whiteSpace=wrap;html=1;" vertex="1" parent="5xexktItHSbGTKAqfjjY-4">
          <mxGeometry y="26" width="159" height="37" as="geometry" />
        </mxCell>
        <mxCell id="5xexktItHSbGTKAqfjjY-47" style="edgeStyle=none;shape=connector;curved=0;rounded=1;orthogonalLoop=1;jettySize=auto;html=1;exitX=1;exitY=0.5;exitDx=0;exitDy=0;entryX=0;entryY=0.5;entryDx=0;entryDy=0;strokeColor=default;align=center;verticalAlign=middle;fontFamily=Helvetica;fontSize=12;fontColor=default;labelBackgroundColor=default;startSize=8;endArrow=classic;endSize=8;" edge="1" parent="1" source="5xexktItHSbGTKAqfjjY-8" target="5xexktItHSbGTKAqfjjY-45">
          <mxGeometry relative="1" as="geometry">
            <Array as="points">
              <mxPoint x="579" y="294" />
              <mxPoint x="583" y="568" />
            </Array>
          </mxGeometry>
        </mxCell>
        <mxCell id="5xexktItHSbGTKAqfjjY-8" value="Coletando Biometria" style="swimlane;fontStyle=0;childLayout=stackLayout;horizontal=1;startSize=26;fillColor=none;horizontalStack=0;resizeParent=1;resizeParentMax=0;resizeLast=0;collapsible=1;marginBottom=0;whiteSpace=wrap;html=1;rounded=1;" vertex="1" parent="1">
          <mxGeometry x="325" y="262.5" width="159" height="63" as="geometry" />
        </mxCell>
        <mxCell id="5xexktItHSbGTKAqfjjY-9" value="coletaBiometria()" style="text;strokeColor=none;fillColor=none;align=left;verticalAlign=top;spacingLeft=4;spacingRight=4;overflow=hidden;rotatable=0;points=[[0,0.5],[1,0.5]];portConstraint=eastwest;whiteSpace=wrap;html=1;" vertex="1" parent="5xexktItHSbGTKAqfjjY-8">
          <mxGeometry y="26" width="159" height="37" as="geometry" />
        </mxCell>
        <mxCell id="5xexktItHSbGTKAqfjjY-10" style="edgeStyle=none;curved=1;rounded=0;orthogonalLoop=1;jettySize=auto;html=1;exitX=1;exitY=0.5;exitDx=0;exitDy=0;entryX=0;entryY=0.5;entryDx=0;entryDy=0;fontSize=12;startSize=8;endSize=8;" edge="1" parent="1">
          <mxGeometry relative="1" as="geometry">
            <mxPoint x="228.00000000000023" y="293.75999999999976" as="sourcePoint" />
            <mxPoint x="325" y="293.75999999999976" as="targetPoint" />
          </mxGeometry>
        </mxCell>
        <mxCell id="5xexktItHSbGTKAqfjjY-20" value="[registro&lt;div&gt;concluído]&lt;/div&gt;" style="edgeLabel;html=1;align=center;verticalAlign=middle;resizable=0;points=[];fontSize=12;" vertex="1" connectable="0" parent="5xexktItHSbGTKAqfjjY-10">
          <mxGeometry x="-0.1546" y="1" relative="1" as="geometry">
            <mxPoint x="1" y="-17" as="offset" />
          </mxGeometry>
        </mxCell>
        <mxCell id="5xexktItHSbGTKAqfjjY-11" value="" style="ellipse;whiteSpace=wrap;html=1;aspect=fixed;strokeWidth=2;" vertex="1" parent="1">
          <mxGeometry x="-123" y="277" width="31" height="31" as="geometry" />
        </mxCell>
        <mxCell id="5xexktItHSbGTKAqfjjY-15" style="edgeStyle=none;curved=1;rounded=0;orthogonalLoop=1;jettySize=auto;html=1;exitX=0.5;exitY=1;exitDx=0;exitDy=0;entryX=0.5;entryY=0;entryDx=0;entryDy=0;fontSize=12;startSize=8;endSize=8;" edge="1" parent="1" source="5xexktItHSbGTKAqfjjY-12" target="5xexktItHSbGTKAqfjjY-11">
          <mxGeometry relative="1" as="geometry" />
        </mxCell>
        <mxCell id="5xexktItHSbGTKAqfjjY-16" value="[requisição recebida]" style="edgeLabel;html=1;align=center;verticalAlign=middle;resizable=0;points=[];fontSize=12;" vertex="1" connectable="0" parent="5xexktItHSbGTKAqfjjY-15">
          <mxGeometry x="-0.1429" relative="1" as="geometry">
            <mxPoint as="offset" />
          </mxGeometry>
        </mxCell>
        <mxCell id="5xexktItHSbGTKAqfjjY-12" value="Pronto" style="swimlane;fontStyle=0;childLayout=stackLayout;horizontal=1;startSize=26;fillColor=none;horizontalStack=0;resizeParent=1;resizeParentMax=0;resizeLast=0;collapsible=1;marginBottom=0;whiteSpace=wrap;html=1;rounded=1;" vertex="1" parent="1">
          <mxGeometry x="-187" y="140" width="159" height="61" as="geometry" />
        </mxCell>
        <mxCell id="5xexktItHSbGTKAqfjjY-13" value="Aguarda por requisição" style="text;strokeColor=none;fillColor=none;align=left;verticalAlign=top;spacingLeft=4;spacingRight=4;overflow=hidden;rotatable=0;points=[[0,0.5],[1,0.5]];portConstraint=eastwest;whiteSpace=wrap;html=1;" vertex="1" parent="5xexktItHSbGTKAqfjjY-12">
          <mxGeometry y="26" width="159" height="35" as="geometry" />
        </mxCell>
        <mxCell id="5xexktItHSbGTKAqfjjY-17" style="edgeStyle=none;curved=1;rounded=0;orthogonalLoop=1;jettySize=auto;html=1;exitX=1;exitY=0.5;exitDx=0;exitDy=0;fontSize=12;startSize=8;endSize=8;" edge="1" parent="1" source="5xexktItHSbGTKAqfjjY-11">
          <mxGeometry relative="1" as="geometry">
            <mxPoint x="68" y="293" as="targetPoint" />
          </mxGeometry>
        </mxCell>
        <mxCell id="5xexktItHSbGTKAqfjjY-18" value="[se cadastro]" style="edgeLabel;html=1;align=center;verticalAlign=middle;resizable=0;points=[];fontSize=12;" vertex="1" connectable="0" parent="5xexktItHSbGTKAqfjjY-17">
          <mxGeometry x="-0.2782" relative="1" as="geometry">
            <mxPoint x="6" y="-11" as="offset" />
          </mxGeometry>
        </mxCell>
        <mxCell id="5xexktItHSbGTKAqfjjY-19" style="edgeStyle=none;curved=1;rounded=0;orthogonalLoop=1;jettySize=auto;html=1;exitX=0.5;exitY=0;exitDx=0;exitDy=0;entryX=0.998;entryY=0.124;entryDx=0;entryDy=0;entryPerimeter=0;fontSize=12;startSize=8;endSize=8;" edge="1" parent="1" source="5xexktItHSbGTKAqfjjY-8" target="5xexktItHSbGTKAqfjjY-13">
          <mxGeometry relative="1" as="geometry">
            <Array as="points">
              <mxPoint x="416" y="155" />
            </Array>
          </mxGeometry>
        </mxCell>
        <mxCell id="5xexktItHSbGTKAqfjjY-22" value="[coleta concluída -&lt;div&gt;cadastro ou login]&lt;/div&gt;" style="edgeLabel;html=1;align=center;verticalAlign=middle;resizable=0;points=[];fontSize=12;" vertex="1" connectable="0" parent="5xexktItHSbGTKAqfjjY-19">
          <mxGeometry x="0.3331" y="4" relative="1" as="geometry">
            <mxPoint x="-28" y="19" as="offset" />
          </mxGeometry>
        </mxCell>
        <mxCell id="5xexktItHSbGTKAqfjjY-23" value="Busca informações de login" style="swimlane;fontStyle=0;childLayout=stackLayout;horizontal=1;startSize=26;fillColor=none;horizontalStack=0;resizeParent=1;resizeParentMax=0;resizeLast=0;collapsible=1;marginBottom=0;whiteSpace=wrap;html=1;rounded=1;" vertex="1" parent="1">
          <mxGeometry x="69" y="402" width="159" height="61" as="geometry" />
        </mxCell>
        <mxCell id="5xexktItHSbGTKAqfjjY-24" value="Busca informações de login&lt;div&gt;na classe Usuario.&lt;/div&gt;" style="text;strokeColor=none;fillColor=none;align=left;verticalAlign=top;spacingLeft=4;spacingRight=4;overflow=hidden;rotatable=0;points=[[0,0.5],[1,0.5]];portConstraint=eastwest;whiteSpace=wrap;html=1;" vertex="1" parent="5xexktItHSbGTKAqfjjY-23">
          <mxGeometry y="26" width="159" height="35" as="geometry" />
        </mxCell>
        <mxCell id="5xexktItHSbGTKAqfjjY-25" style="edgeStyle=none;curved=0;rounded=1;orthogonalLoop=1;jettySize=auto;html=1;exitX=0.5;exitY=1;exitDx=0;exitDy=0;entryX=-0.007;entryY=0.102;entryDx=0;entryDy=0;entryPerimeter=0;fontSize=12;startSize=8;endSize=8;" edge="1" parent="1" source="5xexktItHSbGTKAqfjjY-11" target="5xexktItHSbGTKAqfjjY-24">
          <mxGeometry relative="1" as="geometry">
            <Array as="points">
              <mxPoint x="-107" y="432" />
            </Array>
          </mxGeometry>
        </mxCell>
        <mxCell id="5xexktItHSbGTKAqfjjY-26" value="[se login]" style="edgeLabel;html=1;align=center;verticalAlign=middle;resizable=0;points=[];fontSize=12;" vertex="1" connectable="0" parent="1">
          <mxGeometry x="-20.002604749577294" y="418.998909477196" as="geometry" />
        </mxCell>
        <mxCell id="5xexktItHSbGTKAqfjjY-31" style="edgeStyle=none;shape=connector;curved=0;rounded=1;orthogonalLoop=1;jettySize=auto;html=1;exitX=0.5;exitY=0;exitDx=0;exitDy=0;entryX=0.5;entryY=1;entryDx=0;entryDy=0;strokeColor=default;align=center;verticalAlign=middle;fontFamily=Helvetica;fontSize=12;fontColor=default;labelBackgroundColor=default;startSize=8;endArrow=classic;endSize=8;" edge="1" parent="1" source="5xexktItHSbGTKAqfjjY-28" target="5xexktItHSbGTKAqfjjY-8">
          <mxGeometry relative="1" as="geometry" />
        </mxCell>
        <mxCell id="5xexktItHSbGTKAqfjjY-28" value="Validando dados de login" style="swimlane;fontStyle=0;childLayout=stackLayout;horizontal=1;startSize=26;fillColor=none;horizontalStack=0;resizeParent=1;resizeParentMax=0;resizeLast=0;collapsible=1;marginBottom=0;whiteSpace=wrap;html=1;rounded=1;" vertex="1" parent="1">
          <mxGeometry x="325" y="402" width="159" height="61" as="geometry" />
        </mxCell>
        <mxCell id="5xexktItHSbGTKAqfjjY-29" value="validaLogin()" style="text;strokeColor=none;fillColor=none;align=left;verticalAlign=top;spacingLeft=4;spacingRight=4;overflow=hidden;rotatable=0;points=[[0,0.5],[1,0.5]];portConstraint=eastwest;whiteSpace=wrap;html=1;" vertex="1" parent="5xexktItHSbGTKAqfjjY-28">
          <mxGeometry y="26" width="159" height="35" as="geometry" />
        </mxCell>
        <mxCell id="5xexktItHSbGTKAqfjjY-30" style="edgeStyle=none;shape=connector;curved=0;rounded=1;orthogonalLoop=1;jettySize=auto;html=1;exitX=1;exitY=0.5;exitDx=0;exitDy=0;entryX=0;entryY=0.5;entryDx=0;entryDy=0;strokeColor=default;align=center;verticalAlign=middle;fontFamily=Helvetica;fontSize=12;fontColor=default;labelBackgroundColor=default;startSize=8;endArrow=classic;endSize=8;" edge="1" parent="1">
          <mxGeometry relative="1" as="geometry">
            <mxPoint x="228" y="432.21" as="sourcePoint" />
            <mxPoint x="325" y="432.21" as="targetPoint" />
          </mxGeometry>
        </mxCell>
        <mxCell id="5xexktItHSbGTKAqfjjY-32" value="Busca email do Usuario" style="swimlane;fontStyle=0;childLayout=stackLayout;horizontal=1;startSize=26;fillColor=none;horizontalStack=0;resizeParent=1;resizeParentMax=0;resizeLast=0;collapsible=1;marginBottom=0;whiteSpace=wrap;html=1;rounded=1;" vertex="1" parent="1">
          <mxGeometry x="69" y="537" width="159" height="61" as="geometry" />
        </mxCell>
        <mxCell id="5xexktItHSbGTKAqfjjY-33" value="Busca email&amp;nbsp;&lt;span style=&quot;background-color: initial;&quot;&gt;na classe Usuario.&lt;/span&gt;" style="text;strokeColor=none;fillColor=none;align=left;verticalAlign=top;spacingLeft=4;spacingRight=4;overflow=hidden;rotatable=0;points=[[0,0.5],[1,0.5]];portConstraint=eastwest;whiteSpace=wrap;html=1;" vertex="1" parent="5xexktItHSbGTKAqfjjY-32">
          <mxGeometry y="26" width="159" height="35" as="geometry" />
        </mxCell>
        <mxCell id="5xexktItHSbGTKAqfjjY-34" style="edgeStyle=none;shape=connector;curved=0;rounded=1;orthogonalLoop=1;jettySize=auto;html=1;exitX=0.5;exitY=1;exitDx=0;exitDy=0;entryX=-0.009;entryY=0.111;entryDx=0;entryDy=0;entryPerimeter=0;strokeColor=default;align=center;verticalAlign=middle;fontFamily=Helvetica;fontSize=12;fontColor=default;labelBackgroundColor=default;startSize=8;endArrow=classic;endSize=8;" edge="1" parent="1" source="5xexktItHSbGTKAqfjjY-11" target="5xexktItHSbGTKAqfjjY-33">
          <mxGeometry relative="1" as="geometry">
            <Array as="points">
              <mxPoint x="-106" y="567" />
            </Array>
          </mxGeometry>
        </mxCell>
        <mxCell id="5xexktItHSbGTKAqfjjY-35" value="[se recuperação de senha]" style="edgeLabel;html=1;align=center;verticalAlign=middle;resizable=0;points=[];fontSize=12;fontFamily=Helvetica;fontColor=default;labelBackgroundColor=default;" vertex="1" connectable="0" parent="5xexktItHSbGTKAqfjjY-34">
          <mxGeometry x="0.5854" y="1" relative="1" as="geometry">
            <mxPoint x="-1" y="-11" as="offset" />
          </mxGeometry>
        </mxCell>
        <mxCell id="5xexktItHSbGTKAqfjjY-36" value="Validando existência do email" style="swimlane;fontStyle=0;childLayout=stackLayout;horizontal=1;startSize=26;fillColor=none;horizontalStack=0;resizeParent=1;resizeParentMax=0;resizeLast=0;collapsible=1;marginBottom=0;whiteSpace=wrap;html=1;rounded=1;" vertex="1" parent="1">
          <mxGeometry x="325" y="537" width="159" height="61" as="geometry" />
        </mxCell>
        <mxCell id="5xexktItHSbGTKAqfjjY-37" value="validaEmail()" style="text;strokeColor=none;fillColor=none;align=left;verticalAlign=top;spacingLeft=4;spacingRight=4;overflow=hidden;rotatable=0;points=[[0,0.5],[1,0.5]];portConstraint=eastwest;whiteSpace=wrap;html=1;" vertex="1" parent="5xexktItHSbGTKAqfjjY-36">
          <mxGeometry y="26" width="159" height="35" as="geometry" />
        </mxCell>
        <mxCell id="5xexktItHSbGTKAqfjjY-39" style="edgeStyle=none;shape=connector;curved=0;rounded=1;orthogonalLoop=1;jettySize=auto;html=1;exitX=0.96;exitY=0.014;exitDx=0;exitDy=0;entryX=0.975;entryY=0.926;entryDx=0;entryDy=0;entryPerimeter=0;strokeColor=default;align=center;verticalAlign=middle;fontFamily=Helvetica;fontSize=12;fontColor=default;labelBackgroundColor=default;startSize=8;endArrow=classic;endSize=8;exitPerimeter=0;" edge="1" parent="1" source="5xexktItHSbGTKAqfjjY-36" target="5xexktItHSbGTKAqfjjY-9">
          <mxGeometry relative="1" as="geometry">
            <Array as="points">
              <mxPoint x="509" y="428" />
            </Array>
          </mxGeometry>
        </mxCell>
        <mxCell id="5xexktItHSbGTKAqfjjY-40" value="[busca&lt;div&gt;concluída]&lt;/div&gt;" style="edgeLabel;html=1;align=center;verticalAlign=middle;resizable=0;points=[];fontSize=12;" vertex="1" connectable="0" parent="1">
          <mxGeometry x="271.0023809523812" y="412.9999999999998" as="geometry" />
        </mxCell>
        <mxCell id="5xexktItHSbGTKAqfjjY-41" value="[validação&lt;div&gt;concluída]&lt;/div&gt;" style="edgeLabel;html=1;align=center;verticalAlign=middle;resizable=0;points=[];fontSize=12;" vertex="1" connectable="0" parent="1">
          <mxGeometry x="366.0023809523812" y="360.9999999999998" as="geometry" />
        </mxCell>
        <mxCell id="5xexktItHSbGTKAqfjjY-42" value="[validação&lt;div&gt;concluída]&lt;/div&gt;" style="edgeLabel;html=1;align=center;verticalAlign=middle;resizable=0;points=[];fontSize=12;" vertex="1" connectable="0" parent="1">
          <mxGeometry x="522.0023809523811" y="425.9999999999998" as="geometry" />
        </mxCell>
        <mxCell id="5xexktItHSbGTKAqfjjY-43" style="edgeStyle=none;shape=connector;curved=0;rounded=1;orthogonalLoop=1;jettySize=auto;html=1;exitX=1;exitY=0.5;exitDx=0;exitDy=0;entryX=0;entryY=0.5;entryDx=0;entryDy=0;strokeColor=default;align=center;verticalAlign=middle;fontFamily=Helvetica;fontSize=12;fontColor=default;labelBackgroundColor=default;startSize=8;endArrow=classic;endSize=8;" edge="1" parent="1">
          <mxGeometry relative="1" as="geometry">
            <mxPoint x="228.00000000000023" y="567.26" as="sourcePoint" />
            <mxPoint x="325" y="567.26" as="targetPoint" />
          </mxGeometry>
        </mxCell>
        <mxCell id="5xexktItHSbGTKAqfjjY-44" value="[busca&lt;div&gt;concluída]&lt;/div&gt;" style="edgeLabel;html=1;align=center;verticalAlign=middle;resizable=0;points=[];fontSize=12;" vertex="1" connectable="0" parent="1">
          <mxGeometry x="271.0023809523812" y="545.9999999999998" as="geometry" />
        </mxCell>
        <mxCell id="5xexktItHSbGTKAqfjjY-45" value="Solicitando Nova Senha" style="swimlane;fontStyle=0;childLayout=stackLayout;horizontal=1;startSize=26;fillColor=none;horizontalStack=0;resizeParent=1;resizeParentMax=0;resizeLast=0;collapsible=1;marginBottom=0;whiteSpace=wrap;html=1;rounded=1;" vertex="1" parent="1">
          <mxGeometry x="629" y="537" width="159" height="61" as="geometry" />
        </mxCell>
        <mxCell id="5xexktItHSbGTKAqfjjY-46" value="solicitaNovaSenha()" style="text;strokeColor=none;fillColor=none;align=left;verticalAlign=top;spacingLeft=4;spacingRight=4;overflow=hidden;rotatable=0;points=[[0,0.5],[1,0.5]];portConstraint=eastwest;whiteSpace=wrap;html=1;" vertex="1" parent="5xexktItHSbGTKAqfjjY-45">
          <mxGeometry y="26" width="159" height="35" as="geometry" />
        </mxCell>
        <mxCell id="5xexktItHSbGTKAqfjjY-51" value="[coleta concluída -&lt;div&gt;recuperação de senha]&lt;/div&gt;" style="edgeLabel;html=1;align=center;verticalAlign=middle;resizable=0;points=[];fontSize=12;" vertex="1" connectable="0" parent="1">
          <mxGeometry x="554.9950445136574" y="275.00453207670785" as="geometry" />
        </mxCell>
        <mxCell id="5xexktItHSbGTKAqfjjY-57" style="edgeStyle=none;shape=connector;curved=1;rounded=0;orthogonalLoop=1;jettySize=auto;html=1;exitX=0.5;exitY=0;exitDx=0;exitDy=0;entryX=1;entryY=0.25;entryDx=0;entryDy=0;strokeColor=default;align=center;verticalAlign=middle;fontFamily=Helvetica;fontSize=12;fontColor=default;labelBackgroundColor=default;startSize=8;endArrow=classic;endSize=8;" edge="1" parent="1" source="5xexktItHSbGTKAqfjjY-52" target="5xexktItHSbGTKAqfjjY-12">
          <mxGeometry relative="1" as="geometry">
            <Array as="points">
              <mxPoint x="703" y="313" />
              <mxPoint x="688" y="232" />
              <mxPoint x="263" y="128" />
            </Array>
          </mxGeometry>
        </mxCell>
        <mxCell id="5xexktItHSbGTKAqfjjY-58" value="[alteração concluída]" style="edgeLabel;html=1;align=center;verticalAlign=middle;resizable=0;points=[];fontSize=12;fontFamily=Helvetica;fontColor=default;labelBackgroundColor=default;" vertex="1" connectable="0" parent="5xexktItHSbGTKAqfjjY-57">
          <mxGeometry x="-0.8808" y="1" relative="1" as="geometry">
            <mxPoint x="4" as="offset" />
          </mxGeometry>
        </mxCell>
        <mxCell id="5xexktItHSbGTKAqfjjY-52" value="Alterando Senha" style="swimlane;fontStyle=0;childLayout=stackLayout;horizontal=1;startSize=26;fillColor=none;horizontalStack=0;resizeParent=1;resizeParentMax=0;resizeLast=0;collapsible=1;marginBottom=0;whiteSpace=wrap;html=1;rounded=1;" vertex="1" parent="1">
          <mxGeometry x="629" y="409" width="159" height="61" as="geometry" />
        </mxCell>
        <mxCell id="5xexktItHSbGTKAqfjjY-53" value="setSenha(Usuario)" style="text;strokeColor=none;fillColor=none;align=left;verticalAlign=top;spacingLeft=4;spacingRight=4;overflow=hidden;rotatable=0;points=[[0,0.5],[1,0.5]];portConstraint=eastwest;whiteSpace=wrap;html=1;" vertex="1" parent="5xexktItHSbGTKAqfjjY-52">
          <mxGeometry y="26" width="159" height="35" as="geometry" />
        </mxCell>
        <mxCell id="5xexktItHSbGTKAqfjjY-54" style="edgeStyle=none;shape=connector;curved=0;rounded=1;orthogonalLoop=1;jettySize=auto;html=1;exitX=0.5;exitY=0;exitDx=0;exitDy=0;entryX=0.498;entryY=1.049;entryDx=0;entryDy=0;entryPerimeter=0;strokeColor=default;align=center;verticalAlign=middle;fontFamily=Helvetica;fontSize=12;fontColor=default;labelBackgroundColor=default;startSize=8;endArrow=classic;endSize=8;" edge="1" parent="1" source="5xexktItHSbGTKAqfjjY-45" target="5xexktItHSbGTKAqfjjY-53">
          <mxGeometry relative="1" as="geometry" />
        </mxCell>
        <mxCell id="5xexktItHSbGTKAqfjjY-55" value="[nova senha inserida]" style="edgeLabel;html=1;align=center;verticalAlign=middle;resizable=0;points=[];fontSize=12;fontFamily=Helvetica;fontColor=default;labelBackgroundColor=default;" vertex="1" connectable="0" parent="5xexktItHSbGTKAqfjjY-54">
          <mxGeometry x="0.0279" relative="1" as="geometry">
            <mxPoint as="offset" />
          </mxGeometry>
        </mxCell>
        <mxCell id="5xexktItHSbGTKAqfjjY-59" value="Busca senha do Usuario" style="swimlane;fontStyle=0;childLayout=stackLayout;horizontal=1;startSize=26;fillColor=none;horizontalStack=0;resizeParent=1;resizeParentMax=0;resizeLast=0;collapsible=1;marginBottom=0;whiteSpace=wrap;html=1;rounded=1;" vertex="1" parent="1">
          <mxGeometry x="69" y="660" width="159" height="61" as="geometry" />
        </mxCell>
        <mxCell id="5xexktItHSbGTKAqfjjY-60" value="Busca senha atual&amp;nbsp;&lt;span style=&quot;background-color: initial;&quot;&gt;na classe Usuario.&lt;/span&gt;" style="text;strokeColor=none;fillColor=none;align=left;verticalAlign=top;spacingLeft=4;spacingRight=4;overflow=hidden;rotatable=0;points=[[0,0.5],[1,0.5]];portConstraint=eastwest;whiteSpace=wrap;html=1;" vertex="1" parent="5xexktItHSbGTKAqfjjY-59">
          <mxGeometry y="26" width="159" height="35" as="geometry" />
        </mxCell>
        <mxCell id="5xexktItHSbGTKAqfjjY-61" style="edgeStyle=none;shape=connector;curved=0;rounded=1;orthogonalLoop=1;jettySize=auto;html=1;exitX=0.5;exitY=1;exitDx=0;exitDy=0;entryX=-0.005;entryY=0.223;entryDx=0;entryDy=0;entryPerimeter=0;strokeColor=default;align=center;verticalAlign=middle;fontFamily=Helvetica;fontSize=12;fontColor=default;labelBackgroundColor=default;startSize=8;endArrow=classic;endSize=8;" edge="1" parent="1" source="5xexktItHSbGTKAqfjjY-11" target="5xexktItHSbGTKAqfjjY-60">
          <mxGeometry relative="1" as="geometry">
            <Array as="points">
              <mxPoint x="-106" y="694" />
            </Array>
          </mxGeometry>
        </mxCell>
        <mxCell id="5xexktItHSbGTKAqfjjY-62" value="[se alteração de senha]" style="edgeLabel;html=1;align=center;verticalAlign=middle;resizable=0;points=[];fontSize=12;fontFamily=Helvetica;fontColor=default;labelBackgroundColor=default;" vertex="1" connectable="0" parent="5xexktItHSbGTKAqfjjY-61">
          <mxGeometry x="0.648" relative="1" as="geometry">
            <mxPoint x="3" y="-12" as="offset" />
          </mxGeometry>
        </mxCell>
        <mxCell id="5xexktItHSbGTKAqfjjY-64" value="Validando senha do usuário" style="swimlane;fontStyle=0;childLayout=stackLayout;horizontal=1;startSize=26;fillColor=none;horizontalStack=0;resizeParent=1;resizeParentMax=0;resizeLast=0;collapsible=1;marginBottom=0;whiteSpace=wrap;html=1;rounded=1;" vertex="1" parent="1">
          <mxGeometry x="325" y="660" width="159" height="61" as="geometry" />
        </mxCell>
        <mxCell id="5xexktItHSbGTKAqfjjY-65" value="validaSenha()" style="text;strokeColor=none;fillColor=none;align=left;verticalAlign=top;spacingLeft=4;spacingRight=4;overflow=hidden;rotatable=0;points=[[0,0.5],[1,0.5]];portConstraint=eastwest;whiteSpace=wrap;html=1;" vertex="1" parent="5xexktItHSbGTKAqfjjY-64">
          <mxGeometry y="26" width="159" height="35" as="geometry" />
        </mxCell>
        <mxCell id="5xexktItHSbGTKAqfjjY-66" style="edgeStyle=none;shape=connector;curved=0;rounded=1;orthogonalLoop=1;jettySize=auto;html=1;exitX=1;exitY=0.5;exitDx=0;exitDy=0;entryX=0;entryY=0.5;entryDx=0;entryDy=0;strokeColor=default;align=center;verticalAlign=middle;fontFamily=Helvetica;fontSize=12;fontColor=default;labelBackgroundColor=default;startSize=8;endArrow=classic;endSize=8;" edge="1" parent="1">
          <mxGeometry relative="1" as="geometry">
            <mxPoint x="228" y="690.21" as="sourcePoint" />
            <mxPoint x="325" y="690.21" as="targetPoint" />
          </mxGeometry>
        </mxCell>
        <mxCell id="5xexktItHSbGTKAqfjjY-67" style="edgeStyle=none;shape=connector;curved=0;rounded=1;orthogonalLoop=1;jettySize=auto;html=1;exitX=0.996;exitY=0.11;exitDx=0;exitDy=0;entryX=0.5;entryY=1;entryDx=0;entryDy=0;strokeColor=default;align=center;verticalAlign=middle;fontFamily=Helvetica;fontSize=12;fontColor=default;labelBackgroundColor=default;startSize=8;endArrow=classic;endSize=8;exitPerimeter=0;" edge="1" parent="1" source="5xexktItHSbGTKAqfjjY-65" target="5xexktItHSbGTKAqfjjY-45">
          <mxGeometry relative="1" as="geometry">
            <Array as="points">
              <mxPoint x="710" y="690" />
            </Array>
          </mxGeometry>
        </mxCell>
        <mxCell id="5xexktItHSbGTKAqfjjY-68" value="[validação&lt;div&gt;concluída]&lt;/div&gt;" style="edgeLabel;html=1;align=center;verticalAlign=middle;resizable=0;points=[];fontSize=12;" vertex="1" connectable="0" parent="1">
          <mxGeometry x="581.0023809523811" y="672.9999999999998" as="geometry" />
        </mxCell>
        <mxCell id="5xexktItHSbGTKAqfjjY-69" value="Solicitando Novos Dados" style="swimlane;fontStyle=0;childLayout=stackLayout;horizontal=1;startSize=26;fillColor=none;horizontalStack=0;resizeParent=1;resizeParentMax=0;resizeLast=0;collapsible=1;marginBottom=0;whiteSpace=wrap;html=1;rounded=1;" vertex="1" parent="1">
          <mxGeometry x="69" y="775" width="159" height="61" as="geometry" />
        </mxCell>
        <mxCell id="5xexktItHSbGTKAqfjjY-70" value="solicitaNovosDados()" style="text;strokeColor=none;fillColor=none;align=left;verticalAlign=top;spacingLeft=4;spacingRight=4;overflow=hidden;rotatable=0;points=[[0,0.5],[1,0.5]];portConstraint=eastwest;whiteSpace=wrap;html=1;" vertex="1" parent="5xexktItHSbGTKAqfjjY-69">
          <mxGeometry y="26" width="159" height="35" as="geometry" />
        </mxCell>
        <mxCell id="5xexktItHSbGTKAqfjjY-71" value="Validando novos dados" style="swimlane;fontStyle=0;childLayout=stackLayout;horizontal=1;startSize=26;fillColor=none;horizontalStack=0;resizeParent=1;resizeParentMax=0;resizeLast=0;collapsible=1;marginBottom=0;whiteSpace=wrap;html=1;rounded=1;" vertex="1" parent="1">
          <mxGeometry x="325" y="775" width="159" height="61" as="geometry" />
        </mxCell>
        <mxCell id="5xexktItHSbGTKAqfjjY-72" value="validaDados()" style="text;strokeColor=none;fillColor=none;align=left;verticalAlign=top;spacingLeft=4;spacingRight=4;overflow=hidden;rotatable=0;points=[[0,0.5],[1,0.5]];portConstraint=eastwest;whiteSpace=wrap;html=1;" vertex="1" parent="5xexktItHSbGTKAqfjjY-71">
          <mxGeometry y="26" width="159" height="35" as="geometry" />
        </mxCell>
        <mxCell id="5xexktItHSbGTKAqfjjY-73" style="edgeStyle=none;shape=connector;curved=0;rounded=1;orthogonalLoop=1;jettySize=auto;html=1;exitX=1;exitY=0.5;exitDx=0;exitDy=0;entryX=0;entryY=0.5;entryDx=0;entryDy=0;strokeColor=default;align=center;verticalAlign=middle;fontFamily=Helvetica;fontSize=12;fontColor=default;labelBackgroundColor=default;startSize=8;endArrow=classic;endSize=8;" edge="1" parent="1">
          <mxGeometry relative="1" as="geometry">
            <mxPoint x="228" y="808.0000000000002" as="sourcePoint" />
            <mxPoint x="325" y="808.0000000000002" as="targetPoint" />
          </mxGeometry>
        </mxCell>
        <mxCell id="5xexktItHSbGTKAqfjjY-74" value="[busca&lt;div&gt;concluída]&lt;/div&gt;" style="edgeLabel;html=1;align=center;verticalAlign=middle;resizable=0;points=[];fontSize=12;" vertex="1" connectable="0" parent="1">
          <mxGeometry x="271.0023809523812" y="670.9999999999998" as="geometry" />
        </mxCell>
        <mxCell id="5xexktItHSbGTKAqfjjY-75" value="[dados&lt;div&gt;inseridos]&lt;/div&gt;" style="edgeLabel;html=1;align=center;verticalAlign=middle;resizable=0;points=[];fontSize=12;" vertex="1" connectable="0" parent="1">
          <mxGeometry x="271.0023809523812" y="788.9999999999998" as="geometry" />
        </mxCell>
        <mxCell id="5xexktItHSbGTKAqfjjY-76" style="edgeStyle=none;shape=connector;curved=0;rounded=1;orthogonalLoop=1;jettySize=auto;html=1;exitX=0.5;exitY=1;exitDx=0;exitDy=0;entryX=-0.004;entryY=0.229;entryDx=0;entryDy=0;entryPerimeter=0;strokeColor=default;align=center;verticalAlign=middle;fontFamily=Helvetica;fontSize=12;fontColor=default;labelBackgroundColor=default;startSize=8;endArrow=classic;endSize=8;" edge="1" parent="1" source="5xexktItHSbGTKAqfjjY-11" target="5xexktItHSbGTKAqfjjY-70">
          <mxGeometry relative="1" as="geometry">
            <Array as="points">
              <mxPoint x="-105" y="809" />
            </Array>
          </mxGeometry>
        </mxCell>
        <mxCell id="5xexktItHSbGTKAqfjjY-77" value="[se alteração de dados&lt;div&gt;cadastrais]&lt;/div&gt;" style="edgeLabel;html=1;align=center;verticalAlign=middle;resizable=0;points=[];fontSize=12;fontFamily=Helvetica;fontColor=default;labelBackgroundColor=default;" vertex="1" connectable="0" parent="1">
          <mxGeometry x="-27.99629523306263" y="788.9953042540138" as="geometry" />
        </mxCell>
        <mxCell id="5xexktItHSbGTKAqfjjY-79" value="Alterando Dados" style="swimlane;fontStyle=0;childLayout=stackLayout;horizontal=1;startSize=26;fillColor=none;horizontalStack=0;resizeParent=1;resizeParentMax=0;resizeLast=0;collapsible=1;marginBottom=0;whiteSpace=wrap;html=1;rounded=1;" vertex="1" parent="1">
          <mxGeometry x="579" y="775" width="159" height="61" as="geometry" />
        </mxCell>
        <mxCell id="5xexktItHSbGTKAqfjjY-80" value="setDadosPessoais(Usuario)" style="text;strokeColor=none;fillColor=none;align=left;verticalAlign=top;spacingLeft=4;spacingRight=4;overflow=hidden;rotatable=0;points=[[0,0.5],[1,0.5]];portConstraint=eastwest;whiteSpace=wrap;html=1;" vertex="1" parent="5xexktItHSbGTKAqfjjY-79">
          <mxGeometry y="26" width="159" height="35" as="geometry" />
        </mxCell>
        <mxCell id="5xexktItHSbGTKAqfjjY-81" style="edgeStyle=none;shape=connector;curved=0;rounded=1;orthogonalLoop=1;jettySize=auto;html=1;exitX=1;exitY=0.5;exitDx=0;exitDy=0;entryX=0;entryY=0.5;entryDx=0;entryDy=0;strokeColor=default;align=center;verticalAlign=middle;fontFamily=Helvetica;fontSize=12;fontColor=default;labelBackgroundColor=default;startSize=8;endArrow=classic;endSize=8;" edge="1" parent="1">
          <mxGeometry relative="1" as="geometry">
            <mxPoint x="484.00000000000045" y="808.0000000000002" as="sourcePoint" />
            <mxPoint x="579" y="808.0000000000002" as="targetPoint" />
          </mxGeometry>
        </mxCell>
        <mxCell id="5xexktItHSbGTKAqfjjY-82" value="[validação&lt;div&gt;concluída]&lt;/div&gt;" style="edgeLabel;html=1;align=center;verticalAlign=middle;resizable=0;points=[];fontSize=12;" vertex="1" connectable="0" parent="1">
          <mxGeometry x="531.0023809523811" y="788.9999999999998" as="geometry" />
        </mxCell>
        <mxCell id="5xexktItHSbGTKAqfjjY-83" style="edgeStyle=none;shape=connector;curved=0;rounded=1;orthogonalLoop=1;jettySize=auto;html=1;exitX=0.547;exitY=1.059;exitDx=0;exitDy=0;entryX=-0.022;entryY=-0.059;entryDx=0;entryDy=0;entryPerimeter=0;strokeColor=default;align=center;verticalAlign=middle;fontFamily=Helvetica;fontSize=12;fontColor=default;labelBackgroundColor=default;startSize=8;endArrow=classic;endSize=8;exitPerimeter=0;" edge="1" parent="1" source="5xexktItHSbGTKAqfjjY-80" target="5xexktItHSbGTKAqfjjY-13">
          <mxGeometry relative="1" as="geometry">
            <Array as="points">
              <mxPoint x="666" y="856" />
              <mxPoint x="-210" y="856" />
              <mxPoint x="-216" y="164" />
            </Array>
          </mxGeometry>
        </mxCell>
      </root>
    </mxGraphModel>
  </diagram>
</mxfile>
